<?xml version="1.0" standalone="no"?>
<!DOCTYPE svg PUBLIC "-//W3C//DTD SVG 20010904//EN"
 "http://www.w3.org/TR/2001/REC-SVG-20010904/DTD/svg10.dtd">
<svg version="1.0" xmlns="http://www.w3.org/2000/svg"
 width="1080.000000pt" height="1080.000000pt" viewBox="0 0 1080.000000 1080.000000"
 preserveAspectRatio="xMidYMid meet">
<metadata>
Created by potrace 1.14, written by Peter Selinger 2001-2017
</metadata>
<g transform="translate(0.000000,1080.000000) scale(0.100000,-0.100000)"
fill="#000000" stroke="none">
<path d="M7885 10389 c-109 -11 -328 -37 -650 -79 -227 -29 -339 -44 -670 -91
-141 -20 -711 -107 -881 -134 -110 -18 -139 -19 -163 -3 -16 10 -29 4 -87 -42
-38 -30 -71 -56 -74 -58 -13 -9 62 -123 124 -189 89 -93 148 -117 326 -135
160 -15 318 -1 639 58 249 46 279 51 706 124 235 41 492 64 470 43 -5 -6 -156
-107 -335 -225 -179 -119 -449 -302 -600 -408 -422 -296 -655 -440 -1006 -621
-181 -94 -193 -102 -238 -160 l-47 -60 17 -89 16 -90 64 -50 c78 -61 85 -64
201 -81 151 -21 508 4 933 65 200 29 348 42 570 52 133 6 153 5 144 -7 -180
-234 -242 -313 -365 -459 -327 -391 -737 -822 -1864 -1960 l-470 -475 64 -3
c245 -12 652 190 1094 541 729 578 1822 1773 2123 2321 l37 69 146 -7 c218
-10 318 -24 376 -53 85 -43 213 -130 226 -155 9 -15 13 -59 13 -123 l0 -100
-77 -151 c-290 -577 -1009 -1573 -1361 -1886 l-64 -58 -69 113 c-38 61 -89
146 -113 187 -81 141 -178 266 -241 311 l-27 19 -20 -32 c-18 -31 -19 -56 -18
-483 l1 -450 52 -160 c29 -89 60 -166 70 -173 27 -19 192 -16 223 5 43 29 210
173 325 279 693 642 1442 1575 1794 2236 76 144 94 195 127 369 l26 140 -30
87 c-17 48 -33 100 -37 117 -3 16 -30 58 -58 93 -47 58 -63 69 -172 123 -201
99 -427 144 -692 138 -84 -2 -153 -2 -153 0 0 10 92 162 138 229 37 54 52 86
57 124 7 48 6 51 -31 89 -84 86 -229 172 -354 210 -93 28 -257 34 -252 9 26
-113 33 -166 30 -235 -4 -80 -4 -80 -103 -261 l-99 -181 -226 -1 c-124 0 -270
-5 -325 -11 -55 -6 -145 -15 -200 -21 -189 -20 -460 -40 -535 -40 l-75 1 55
23 c139 58 379 195 707 403 68 43 158 100 200 127 43 27 305 200 583 385 278
184 568 374 645 422 l140 86 3 51 c4 62 -13 98 -97 209 l-60 80 -83 6 c-68 4
-93 11 -138 36 -49 28 -63 31 -135 29 -44 0 -120 -5 -170 -9z"/>
<path d="M3034 10308 c17 -59 18 -207 2 -303 l-16 -100 -116 -113 c-321 -311
-598 -481 -1204 -742 -255 -109 -604 -240 -610 -230 -4 7 -32 7 -85 -1 -68 -9
-87 -16 -142 -56 -35 -24 -63 -48 -63 -52 0 -4 13 -17 30 -29 16 -13 54 -55
84 -95 276 -370 583 -1354 680 -2182 32 -274 37 -383 27 -600 -11 -216 -29
-342 -61 -427 -13 -33 -16 -57 -11 -76 21 -71 110 -210 173 -268 33 -31 33
-31 119 -25 82 6 88 8 144 51 112 86 242 209 571 541 675 682 1355 1413 1481
1594 13 19 24 55 28 95 l7 65 -49 18 c-26 9 -57 17 -69 17 -41 0 -141 -74
-250 -183 -105 -106 -146 -136 -765 -566 -360 -250 -666 -463 -680 -473 -21
-14 -29 -15 -37 -5 -15 18 -121 367 -203 669 -193 712 -329 1019 -691 1554
-60 89 -119 172 -130 184 -11 12 -18 24 -15 27 3 2 68 18 144 34 640 136 1228
334 1723 580 174 87 544 294 577 323 1 1 -3 62 -9 136 -10 134 -11 136 -56
215 -136 240 -374 445 -518 445 -12 0 -15 -6 -10 -22z"/>
<path d="M3625 5209 c-178 -118 -711 -366 -1246 -579 -85 -34 -332 -129 -549
-211 -659 -248 -875 -332 -1062 -414 -89 -39 -108 -51 -108 -69 0 -31 45 -123
87 -178 41 -53 63 -63 218 -98 50 -11 124 -32 165 -45 l75 -25 185 84 c291
131 556 254 831 386 405 194 690 313 1053 441 77 27 142 49 144 49 13 0 -12
-90 -58 -215 -319 -854 -810 -1656 -1569 -2565 -185 -221 -277 -330 -510 -600
-123 -142 -316 -407 -411 -564 l-23 -39 48 8 c159 23 408 156 640 341 1050
838 2329 2689 2580 3734 14 58 25 119 25 137 0 27 -59 215 -79 250 -8 16 -311
225 -331 229 -8 2 -55 -24 -105 -57z"/>
<path d="M7945 5058 c-158 -16 -1087 -176 -1470 -252 -203 -41 -389 -78 -412
-81 -33 -5 -43 -11 -43 -25 0 -18 -3 -18 -37 -6 -21 7 -79 16 -130 20 -85 7
-99 5 -178 -20 -86 -28 -86 -29 -132 -96 l-46 -67 21 -133 c34 -218 43 -363
45 -753 l2 -370 -195 -7 c-107 -4 -242 -12 -300 -18 -210 -22 -680 -94 -785
-121 -54 -13 -145 -50 -145 -58 0 -3 30 -42 66 -86 l66 -80 205 -68 c382 -127
439 -132 788 -78 143 23 272 44 288 47 l27 6 0 -259 c0 -292 -10 -453 -46
-768 -35 -302 -44 -703 -20 -825 33 -160 102 -303 221 -455 33 -41 62 -75 65
-75 3 0 29 24 57 53 42 42 62 76 108 182 99 227 92 183 99 605 4 206 13 476
21 600 8 131 15 388 15 613 0 301 3 388 13 391 6 2 66 9 132 15 123 12 157 16
645 75 157 19 332 39 390 45 229 25 404 41 431 41 l28 0 -2 -627 c-2 -630 4
-791 38 -1063 17 -138 29 -201 55 -297 38 -138 57 -167 213 -329 81 -83 159
-156 174 -162 66 -27 259 -70 400 -91 233 -35 716 26 1033 130 83 28 107 41
188 106 50 41 95 79 98 84 3 5 -30 60 -73 122 l-79 112 -49 215 c-26 118 -64
287 -84 375 -21 88 -86 377 -146 642 -105 464 -110 483 -138 504 -16 11 -30
19 -32 17 -3 -3 -16 -110 -77 -628 -28 -240 -32 -306 -32 -525 0 -155 5 -279
13 -327 l12 -77 -72 -108 c-39 -59 -74 -110 -76 -112 -5 -6 -221 -40 -303 -47
-51 -5 -86 -1 -163 19 -95 24 -99 27 -185 103 -104 92 -106 98 -154 369 -31
177 -32 186 -32 500 -1 176 3 509 8 740 l9 420 246 1 c167 0 291 6 386 18 277
34 393 45 575 57 184 11 185 11 253 48 64 34 68 38 63 65 -4 16 -6 45 -6 65 0
30 -10 50 -54 103 -49 60 -63 69 -133 96 -166 64 -545 149 -589 132 -34 -13
-175 -46 -274 -65 -88 -16 -432 -65 -457 -65 -13 0 -14 56 -10 378 5 436 10
469 98 645 32 64 48 109 45 122 -9 34 -103 132 -220 229 -116 96 -157 127
-166 125 -3 -1 -45 -6 -95 -11z m-238 -585 l30 -58 -5 -466 -4 -467 -47 -6
c-346 -48 -583 -72 -1066 -110 -416 -33 -506 -38 -513 -32 -8 9 -31 928 -23
938 10 11 150 36 326 58 423 52 506 63 760 106 149 25 322 55 385 68 63 13
118 24 121 25 3 0 20 -25 36 -56z"/>
</g>
</svg>
